<svg version="1.1" xmlns="http://www.w3.org/2000/svg" xmlns:xlink="http://www.w3.org/1999/xlink" width="500.000000pt" height="554.000000pt" viewBox="0,0,231.05,256"><g fill="#ffffff" fill-rule="nonzero" stroke="none" stroke-width="1" stroke-linecap="butt" stroke-linejoin="miter" stroke-miterlimit="10" stroke-dasharray="" stroke-dashoffset="0" font-family="none" font-weight="none" font-size="none" text-anchor="none" style="mix-blend-mode: normal"><g transform="translate(-0.59366,0.03862) scale(0.46209,0.46209)"><g transform="translate(0,554) scale(0.1,-0.1)"><path d="M2292,5210c-571,-56 -1102,-304 -1504,-704c-362,-360 -598,-815 -688,-1327c-31,-175 -39,-512 -16,-699c66,-541 295,-1022 671,-1409c393,-404 869,-646 1430,-727c164,-24 495,-24 660,0c556,80 1040,325 1425,722c361,373 578,808 667,1339c14,87 18,164 18,365c0,270 -9,358 -60,575c-161,688 -641,1292 -1284,1614c-239,120 -475,194 -756,236c-123,19 -437,27 -563,15zM2140,4215c73,-23 141,-91 160,-161c17,-59 18,-212 1,-272c-14,-51 -61,-106 -113,-133c-21,-11 -38,-22 -38,-24c0,-3 24,-47 53,-98l52,-92l6,71c4,39 14,97 24,129c23,80 93,217 149,292c53,69 141,153 162,153c18,0 19,-4 -21,84l-34,76h148h148l227,-493l227,-493l-3,-659l-3,-660l-24,-70c-116,-348 -406,-565 -756,-565c-351,0 -638,214 -756,565l-24,70l-3,1154l-2,1153l182,-5c135,-3 197,-9 238,-22zM3268,1506c34,-31 37,-39 37,-86c0,-47 -3,-55 -37,-86c-32,-28 -45,-34 -84,-34c-39,0 -51,5 -79,33c-38,38 -50,74 -40,114c3,14 21,41 40,60c28,28 40,33 79,33c39,0 52,-6 84,-34z"></path><path d="M1895,4068c-3,-7 -4,-79 -3,-158l3,-145l71,1c126,1 164,36 164,152c0,119 -28,148 -154,159c-61,5 -77,3 -81,-9z"></path><path d="M2609,3990c-41,-22 -80,-76 -104,-146c-25,-74 -39,-191 -31,-257c19,-147 117,-144 274,8l62,61l-44,100c-74,166 -115,254 -118,254c-2,-1 -19,-9 -39,-20z"></path><path d="M1890,3431v-171h130c72,0 130,2 130,4c0,2 -42,77 -93,167c-92,162 -94,164 -130,167l-37,3z"></path><path d="M2804,3518c-54,-108 -151,-201 -254,-243c-45,-18 -47,-22 -250,-367c-113,-192 -206,-354 -208,-359c-2,-5 34,-9 82,-9h86v-247c1,-265 7,-316 46,-376c95,-145 317,-136 404,16l30,52v278v277h90c50,0 90,2 90,4c0,3 -92,161 -204,353c-112,191 -202,350 -199,353c2,3 109,7 237,10l232,5l-76,158l-76,157z"></path></g></g></g></svg>